<svg id="Capa_1" enable-background="new 0 0 512 512" height="512" viewBox="0 0 512 512" width="512" xmlns="http://www.w3.org/2000/svg"><g><g><g><g><g><g><g><circle cx="256" cy="256" fill="#ff6c52" r="256"/></g></g></g></g></g></g><path d="m512 256c0-21.239-2.587-41.874-7.462-61.606l-83.984-83.984-328.853 271.472 127.491 127.491c12.02 1.731 24.309 2.627 36.808 2.627 141.385 0 256-114.615 256-256z" fill="#ef2318"/><path d="m87.787 123.31h177.377v156.185h-177.377z" fill="#7584f2"/><path d="m256.12 123.31h168.092v156.185h-168.092z" fill="#606aea"/><path d="m104.061 104.414c-8.988 0-16.273 7.286-16.273 16.273v13.98h171.839v-30.254h-155.566z" fill="#e9edf5"/><path d="m424.213 120.688c0-8.988-7.286-16.273-16.273-16.273h-151.82v30.254h168.092v-13.981z" fill="#cdd2e1"/><path d="m248.006 262v126.69h159.933c8.988 0 16.273-7.286 16.273-16.273v-110.417z" fill="#4855b7"/><path d="m256 388.69h-150.201c-9.948 0-18.012-8.064-18.012-18.012v-108.678h168.213z" fill="#fff"/><g fill="#bec3d2"><path d="m123.012 284.704h105.013v30h-105.013z"/><path d="m123.012 334.225h105.013v30h-105.013z"/><circle cx="110.47" cy="121.226" r="8.201"/><circle cx="137.511" cy="121.226" r="8.201"/></g></g></svg>